<?xml version="1.0" standalone="no"?>
<!DOCTYPE svg PUBLIC "-//W3C//DTD SVG 20010904//EN"
 "http://www.w3.org/TR/2001/REC-SVG-20010904/DTD/svg10.dtd">
<svg version="1.0" xmlns="http://www.w3.org/2000/svg"
 width="700.000000pt" height="700.000000pt" viewBox="0 0 700.000000 700.000000"
 preserveAspectRatio="xMidYMid meet">
<metadata>
Created by potrace 1.11, written by Peter Selinger 2001-2013
</metadata>
<g transform="translate(0.000000,700.000000) scale(0.100000,-0.100000)"
fill="#000000" stroke="none">
<path d="M0 3500 l0 -3500 3500 0 3500 0 0 3500 0 3500 -3500 0 -3500 0 0
-3500z m1142 2153 c177 -83 265 -277 210 -460 -105 -345 -571 -379 -726 -53
-28 58 -31 75 -31 160 0 83 4 103 27 153 52 111 135 187 243 221 81 26 196 17
277 -21z m5080 -59 c138 -47 217 -209 174 -356 -21 -72 -87 -147 -158 -179
l-53 -24 -2015 0 c-1916 0 -2017 1 -2053 18 -52 24 -124 93 -149 141 -26 51
-35 151 -18 211 23 83 97 162 177 191 31 11 394 13 2044 14 1788 0 2010 -2
2051 -16z m-5080 -1742 c137 -64 228 -205 228 -353 0 -100 -57 -221 -138 -296
-15 -13 -56 -39 -92 -56 -59 -28 -74 -31 -160 -32 -86 0 -101 3 -160 31 -86
41 -153 108 -193 192 -29 61 -32 76 -32 162 0 86 3 101 32 162 51 108 149 190
260 218 70 17 186 5 255 -28z m5100 -89 c97 -45 168 -155 168 -263 0 -107 -72
-218 -170 -264 l-45 -21 -2007 -3 c-1982 -2 -2007 -2 -2060 18 -74 28 -122 70
-157 142 -80 160 -4 343 168 404 29 11 420 13 2046 11 l2010 -2 47 -22z
m-5140 -1693 c58 -17 144 -80 188 -138 45 -61 80 -161 80 -231 -1 -150 -91
-289 -230 -355 -58 -28 -75 -31 -160 -31 -86 0 -101 3 -162 32 -85 40 -151
106 -191 191 -29 61 -32 76 -32 162 0 86 3 101 32 162 51 108 136 180 253 214
49 15 162 12 222 -6z m5136 -129 c111 -50 180 -169 169 -291 -9 -103 -64 -182
-159 -229 l-61 -31 -2007 0 c-2274 0 -2063 -8 -2156 85 -65 65 -89 129 -82
224 6 81 31 133 92 189 46 42 73 57 131 72 17 5 928 7 2025 7 l1995 -2 53 -24z"/>
</g>
</svg>
